**ABCDEFGHIJKLMNOPQRSTUVWXYZabcdefghijklmnopqrstuvwxyz**************************
**PARASOLID !"#$%&'()*+,-./:;<=>?@[\]^_`{|}~0123456789**************************
**PART1;
MC=AMD64;
MC_MODEL=ARMv8 (64-bit) Family 8 Model 0 Revision   0,  ;
MC_ID=unknown;
OS=Windows_NT;
OS_RELEASE=unknown;
FRU=Parasolid Version 33.1, build 255,  1- 8-2022;
APPL=SOLIDWORKS 2022-2022167;
SITE=;
USER=unknown;
FORMAT=text;
GUISE=transmit;
KEY=FILETank_ASSY.x_t;
DATE=Fri Aug  4 10:30:27 2023;
**PART2;
SCH=SCH_3301255_33103;
USFLD_SIZE=0;
**PART3;
**END_OF_HEADER*****************************************************************
T51 : TRANSMIT FILE created by modeller version 330125523 SCH_3301255_33103_1300
6230 0 10 21 CCCCI7 lattice222 0 CCCI4 mesh1006 0 I8 polyline1008 0 CCCCCCCCCCA1
6 mesh_offset_data206 0 Z1 19 2 3 0 0 0 0 0 0 0 0 1e3 1e-8 0 0 0 1 0 1 4 0 81 25
5 1 2 19 5 1 0 0 0 0 0 70 11 CI9 list_type0 0 1 uI10 notransmit0 0 1 lCCCDCCDI12
 finger_index0 0 1 dI12 finger_block1012 0 CZ3 0 4 T1 0 0 1 20 1 6 6 11 255 4 17
 0 1 7 8 1 9 0 9 0 12 35 CCCI7 lattice222 0 CCCI4 mesh1006 0 I8 polyline1008 0 C
CCCCCCDI5 owner1040 0 CCCCCCI13 boundary_mesh1006 0 I17 boundary_polyline1008 0
 CCCA16 index_map_offset0 0 1 dA9 index_map82 0 A17 node_id_index_map82 0 A20 sc
hema_embedding_map82 0 A5 child12 0 A14 lowest_node_id0 0 1 dA16 mesh_offset_dat
a206 0 Z7 1149 10 11 0 0 0 0 0 0 0 1e3 1e-8 4 12 0 1 0 1 1 13 14 15 16 0 0 17 18
 19 0 0 0 0 0 0 0 100 10 CCCCCCCCCA9 precision229 0 Z8 18 4 0 0 -490653893338638
e-31 -1 -1243449787580174e-29 -1 49065389333868e-30 -3434577253370755e-31 343457
7253370765e-31 1243449787580174e-29 -1 .994472899137538 2.884232467372845 2.3649
0328431681 1 3 ?0 11 9 15 0 1 7 20 1 21 4 21 4 100 20 16 9 0 0 -277555756156287e
-30 -.707106781186555 .70710678118654 -1 49065389333868e-30 -3434577253370755e-3
1 2081668171172195e-31 -.70710678118654 -.707106781186555 .973259695701942 2.884
232467372845 2.356116487752405 1 3 ?0 11 21 13 0 1 7 22 1 23 9 23 9 100 22 14 21
 0 0 -343457725337076e-30 -893729534823251e-29 1 -1 49065389333868e-30 -34345772
53370755e-31 -49065389333865e-30 -1 -893729534823251e-29 .964472899137538 2.8842
32467372845 2.33490328431681 1 3 ?0 11 23 11 0 1 7 24 1 25 21 25 21 100 24 12 23
 0 0 -208166817117219e-30 .707106781186543 .707106781186553 -1 49065389333868e-3
0 -3434577253370755e-31 -2775557561562875e-31 -.707106781186553 .707106781186543
 .973259695701942 2.884232467372845 2.313690080881215 1 3 ?0 11 25 9 0 1 7 26 1
 27 23 27 23 100 26 10 25 0 0 490653893338662e-31 1 555111512312578e-29 -1 49065
389333868e-30 -3434577253370755e-31 -343457725337076e-30 -555111512312578e-29 1
 .994472899137538 2.884232467372845 2.30490328431681 1 3 ?0 11 27 7 0 1 7 28 1 2
9 25 29 25 100 28 8 27 0 0 2775557561562885e-31 .70710678118655 -.70710678118654
5 -1 49065389333868e-30 -3434577253370755e-31 -208166817117218e-30 .707106781186
545 .70710678118655 1.015686102573134 2.884232467372845 2.31369008088121 1 3 ?0
 11 29 5 0 1 7 30 1 31 27 31 27 100 30 6 29 0 0 343457725337076e-30 194289029309
4025e-30 -1 -1 49065389333868e-30 -3434577253370755e-31 490653893338674e-31 1 19
42890293094025e-30 1.024472899137538 2.884232467372845 2.33490328431681 1 3 ?0 1
1 31 3 0 1 7 32 1 33 29 0 29 100 32 4 31 0 0 208166817117217e-30 -.7071067811865
47 -.707106781186548 -1 49065389333868e-30 -3434577253370755e-31 277555756156289
e-30 .707106781186548 -.707106781186547 1.015686102573134 2.884232467372845 2.35
6116487752405 1 3 ?0 11 33 1 0 1 12 34 1 0 31 0 0 12 12 817 35 36 0 37 0 0 0 0 0
 1e3 1e-8 33 38 7 1 0 1 1 39 40 41 42 0 0 43 44 45 0 0 0 0 0 0 0 100 34 2 33 0 0
 1 0 0 0 1 0 0 0 1 .994472899137538 2.92800212270346 2.33490328431681 1 1 ?0 81
 1 35 817 5 12 46 0 0 0 47 70 36 0 4 T12 0 0 4 20 1 48 48 53 255 37 188 0 12 49
 0 0 -0 -2.4384 0 .2748 0 1 0 1 0 0 13 255 39 62 0 12 50 51 0 0 52 0 54 255 40 5
68 0 53 54 0 55 +-.00707106781186548 -2.4384 -.00707106781186547 -.7071067811865
48 0 -.707106781186547 .2946303446693845 .02 -.707106781186547 0 .70710678118654
8 38 12 CCCCCCCCCCCA17 intersection_data204 0 Z41 576 0 56 57 0 0 +54 40 58 59 6
0 61 29 255 42 482 0 45 62 0 -.01242640687119284 -2.144031821671785 .03 19 8 CCC
CCCCA5 owner12 0 Z43 66 0 12 63 0 64 V0 16 255 44 488 0 ?65 0 66 67 0 0 12 18 25
5 45 480 0 68 0 69 42 ?12 17 255 68 0 70 71 72 45 73 66 0 74 +18 69 472 0 75 45
 76 62 ?12 17 75 0 77 78 79 69 80 81 0 72 +18 76 464 0 82 69 83 84 ?12 29 62 474
 0 69 84 42 -.03 -2.144031821671785 .01242640687119284 29 84 466 0 76 85 62 -.03
 -2.144031821671785 -.01242640687119284 29 85 458 0 83 86 84 -.01242640687119286
 -2.144031821671785 -.03 18 83 456 0 87 76 88 85 ?12 29 86 450 0 88 89 85 .01242
640687119284 -2.144031821671785 -.03 18 88 448 0 90 83 91 86 ?12 29 89 442 0 91
 92 86 .03 -2.144031821671785 -.01242640687119284 18 91 440 0 93 88 94 89 ?12 29
 92 433 0 94 95 89 .00932157394843962 -2.163785288097475 .003861122352107405 18
 94 431 0 96 91 97 92 ?12 29 95 429 0 97 98 92 .00932157394843962 -2.16378528809
7475 -.00386112235210741 18 97 427 0 99 94 100 95 ?12 29 98 425 0 100 101 95 .00
386112235210741 -2.163785288097475 -.00932157394843962 18 100 423 0 102 97 103 9
8 ?12 29 101 421 0 103 104 98 -.00386112235210742 -2.163785288097475 -.009321573
94843962 18 103 419 0 105 100 106 101 ?12 29 104 417 0 106 107 101 -.00932157394
843962 -2.163785288097475 -.003861122352107415 18 106 415 0 108 103 109 104 ?12
 29 107 413 0 109 110 104 -.00932157394843962 -2.163785288097475 .00386112235210
742 18 109 411 0 111 106 112 107 ?12 29 110 409 0 112 113 107 -.0038611223521074
15 -2.163785288097475 .00932157394843962 18 112 407 0 114 109 115 110 ?12 29 113
 406 0 115 116 110 .00386112235210741 -2.163785288097475 .00932157394843962 18 1
15 404 0 117 112 118 113 ?12 29 116 398 0 118 119 113 .03 -2.144031821671785 .01
242640687119284 18 118 396 0 120 115 121 116 ?12 29 119 395 0 121 122 116 .01242
640687119284 -2.144031821671785 .03 18 121 393 0 65 118 123 119 ?12 29 122 194 0
 123 124 119 .01242640687119284 .2527224256220085 .03 18 123 192 0 125 121 126 1
22 ?12 29 124 351 0 126 127 122 -.01242640687119284 .2527224256220085 .03 18 126
 257 0 71 123 128 124 ?12 29 127 352 0 128 129 124 -.03 .2527224256220085 .01242
640687119284 18 128 256 0 78 126 130 127 ?12 29 129 353 0 130 131 127 -.03 .2527
224256220085 -.01242640687119284 18 130 255 0 132 128 133 129 ?12 29 131 354 0 1
33 134 129 -.01242640687119284 .2527224256220085 -.03 18 133 254 0 135 130 136 1
31 ?12 29 134 355 0 136 137 131 .01242640687119284 .2527224256220085 -.03 18 136
 253 0 138 133 139 134 ?12 29 137 356 0 139 140 134 .03 .2527224256220085 -.0124
2640687119284 18 139 252 0 141 136 142 137 ?12 29 140 357 0 142 0 137 .03 .25272
24256220085 .01242640687119284 18 142 251 0 143 139 0 140 ?12 17 143 0 144 145 1
46 142 147 148 0 149 +15 255 144 270 0 150 151 0 17 145 0 144 150 143 123 152 15
3 0 154 -17 146 0 144 143 150 118 155 156 0 147 +17 147 0 157 93 149 118 143 148
 0 0 -16 148 397 0 ?143 158 159 160 0 0 12 17 149 0 157 147 141 142 161 162 0 15
2 -15 157 274 0 147 163 0 17 141 0 157 149 93 139 164 158 0 165 +17 161 0 166 16
7 152 139 149 162 0 0 +16 162 245 0 ?161 168 153 169 0 0 12 17 152 0 166 161 154
 142 145 153 0 0 +15 166 190 0 154 170 171 17 154 0 166 152 172 123 173 174 0 0
 +16 153 244 0 ?152 162 174 175 0 0 12 16 174 243 0 ?154 153 56 176 0 0 12 31 25
5 175 336 0 153 169 176 0 +.0212132034355964 0 .0212132034355964 -.7071067811865
48 0 -.707106781186548 -.707106781186548 0 .707106781186548 .2530277455142025 31
 169 337 0 162 177 175 0 +.03 0 -418799294267021e-32 -1 0 1395997647556736e-31 1
395997647556736e-31 0 1 .2530277455142025 31 176 335 0 174 175 178 0 +4187992942
670205e-33 0 .03 -1395997647556734e-31 0 -1 -1 0 1395997647556734e-31 .253027745
5142025 30 255 178 326 0 179 176 180 0 +.01242640687119284 -2.803201 .03 0 1 0 1
6 179 394 0 ?125 181 182 178 0 0 12 30 180 325 0 182 178 183 0 +-.01242640687119
284 -2.803201 .03 0 1 0 16 182 481 0 ?71 179 184 180 0 0 12 30 183 324 0 184 180
 185 0 +-.03 -2.803201 .01242640687119284 0 1 0 16 184 473 0 ?78 182 186 183 0 0
 12 30 185 323 0 186 183 187 0 +-.03 -2.803201 -.01242640687119284 0 1 0 16 186
 465 0 ?132 184 188 185 0 0 12 30 187 322 0 188 185 189 0 +-.01242640687119286 -
2.803201 -.03 0 1 0 16 188 457 0 ?135 186 190 187 0 0 12 30 189 321 0 190 187 19
1 0 +.01242640687119284 -2.803201 -.03 0 1 0 16 190 449 0 ?138 188 158 189 0 0 1
2 30 191 320 0 158 189 160 0 +.03 -2.803201 -.01242640687119284 0 1 0 16 158 441
 0 ?141 190 148 191 0 0 12 30 160 319 0 148 191 192 0 +.03 -2.803201 .0124264068
7119284 0 1 0 31 192 119 0 181 160 193 0 +0 3120400044227455e-32 0 0 1 0 0 0 1 .
2548 16 181 75 0 ?194 195 179 192 0 0 12 31 193 120 0 195 192 196 0 +0 -2.4384 0
 0 1 0 0 0 1 .2548 16 195 80 0 ?197 198 181 193 0 0 12 31 196 121 0 198 193 199
 0 +0 -2.4384 0 0 1 0 0 0 1 .3048 16 198 95 0 ?200 201 195 196 0 0 12 31 199 122
 0 201 196 202 0 +0 0 0 0 1 0 0 0 1 .3048 16 201 100 0 ?203 156 198 199 0 0 12 3
1 202 401 0 156 199 204 0 -.0212132034355964 -2.4384 .0212132034355964 .70710678
1186548 0 .707106781186547 .707106781186548 0 -.707106781186548 .294630344669384
5 16 156 399 0 ?146 205 201 202 0 0 12 31 204 410 0 205 202 206 0 -1301289530354
786e-33 -2.4384 .00932157394843962 -1395997647556734e-31 0 -1 -1 0 1395997647556
734e-31 .274641854528992 16 205 408 0 ?114 207 156 204 0 0 12 31 206 414 0 207 2
04 208 0 --.00659134815027352 -2.4384 .00659134815027352 .707106781186548 0 -.70
7106781186548 -.707106781186548 0 -.707106781186548 .274641854528992 16 207 412
 0 ?111 209 205 206 0 0 12 31 208 418 0 209 206 210 0 --.00932157394843962 -2.43
84 0 1 0 0 0 0 -1 .274641854528992 16 209 416 0 ?108 211 207 208 0 0 12 31 210 4
22 0 211 208 212 0 --.00659134815027352 -2.4384 -.00659134815027351 .70710678118
6548 0 .707106781186547 .707106781186547 0 -.707106781186548 .274641854528992 16
 211 420 0 ?105 213 209 210 0 0 12 31 212 426 0 213 210 214 0 --1301289530354784
e-33 -2.4384 -.00932157394843962 1395997647556734e-31 0 1 1 0 -1395997647556734e
-31 .274641854528992 16 213 424 0 ?102 215 211 212 0 0 12 31 214 430 0 215 212 2
16 0 -.00659134815027351 -2.4384 -.00659134815027351 -.707106781186547 0 .707106
781186548 .707106781186548 0 .707106781186548 .274641854528992 16 215 428 0 ?99
 217 213 214 0 0 12 31 216 434 0 217 214 218 0 -.00932157394843962 -2.4384 -1301
289530354786e-33 -1 0 1395997647556736e-31 1395997647556736e-31 0 1 .27464185452
8992 16 217 432 0 ?96 219 215 216 0 0 12 31 218 437 0 219 216 220 0 -.0065913481
5027351 -2.4384 .00659134815027351 -.707106781186548 0 -.707106781186547 -.70710
6781186548 0 .707106781186548 .274641854528992 16 219 435 0 ?221 222 217 218 0 0
 12 31 220 445 0 222 218 223 0 -.03 -2.4384 -418799294267021e-32 1 0 -1395997647
556736e-31 -1395997647556736e-31 0 -1 .2946303446693845 16 222 443 0 ?93 224 219
 220 0 0 12 31 223 453 0 224 220 225 0 -.0212132034355964 -2.4384 -.021213203435
5964 .707106781186547 0 -.707106781186548 -.707106781186548 0 -.707106781186548
 .2946303446693845 16 224 451 0 ?90 226 222 223 0 0 12 31 225 461 0 226 223 227
 0 --4187992942670205e-33 -2.4384 -.03 -1395997647556734e-31 0 -1 -1 0 139599764
7556734e-31 .2946303446693845 16 226 459 0 ?87 228 224 225 0 0 12 31 227 469 0 2
28 225 229 0 --.02121320343559645 -2.4384 -.0212132034355964 -.707106781186548 0
 -.707106781186547 -.707106781186547 0 .707106781186548 .2946303446693845 16 228
 467 0 ?82 81 226 227 0 0 12 31 229 477 0 81 227 230 0 --.03 -2.4384 0 -1 0 0 0
 0 1 .2946303446693845 16 81 475 0 ?75 66 228 229 0 0 12 31 230 485 0 66 229 67
 0 --.0212132034355964 -2.4384 .02121320343559645 -.707106781186548 0 .707106781
186548 .707106781186548 0 .707106781186548 .2946303446693845 16 66 483 0 ?68 44
 81 230 0 0 12 31 67 490 0 44 230 231 0 -4187992942670205e-33 -2.4384 .03 139599
7647556734e-31 0 1 1 0 -1395997647556734e-31 .2946303446693845 38 231 583 0 232
 67 233 0 -234 235 236 237 238 239 16 232 551 0 ?120 240 0 231 0 0 12 38 233 582
 0 240 231 241 0 +235 242 243 244 245 246 54 234 575 0 247 248 235 249 +.01 -2.4
384 -1395997647556736e-33 1 0 -1395997647556736e-31 .2946303446693845 .02 -13959
97647556736e-31 0 -1 54 235 574 0 250 234 242 251 +.00707106781186547 -2.4384 .0
0707106781186547 .707106781186548 0 .707106781186547 .2946303446693845 .02 .7071
06781186548 0 -.707106781186548 40 255 6 236 0 1 6 .00114284435358703 .340568265
883063 ??.03 -2.144031821671785 .01242640687119284 .0290159649119392 -2.15021638
5715005 .01201880619186704 .0262050330496737 -2.15569960381721 .0108544800916099
8 .0218358322489069 -2.16003837936451 .00904469786320092 .0160557998081684 -2.16
2911064326005 .00665053003529068 .00935155017119801 -2.163786457971795 .00387353
8910150125 41 3 CI8 term_use0 0 1 cCZ1 237 L?.03 -2.144031821671785 .01242640687
119284 41 2 238 TF.00932157394843963 -2.163785288097475 .003861122352107405 .009
35155017119801 -2.163786457971795 .003873538910150125 204 2 17 INTERSECTION_DATA
17 Intersection data7 uv_type0 0 1 u6 values0 1 1 fT28 239 4 1.612985103818745 1
.5707963267949 1.52860754977105 1.5707963267949 1.61247754877386 1.8857903016143
85 1.529115104815935 1.885790301614385 1.609173177169085 2.19701128486882 1.5324
1947642071 2.197011284868825 1.60327751732841 2.50831302804798 1.538315136261385
 2.50831302804798 1.59493246329684 2.83397394447971 1.546660190292955 2.83397394
447971 1.584900809827505 -3.10916447894335 1.55669184376246 -3.10916447894432 1.
58485554424713 -3.1076648423563 1.55673710934266 -3.1076648423563 14 255 250 524
 252 ?0 247 253 50 235 +0 0 0 247 254 54 242 573 0 255 235 256 257 +139599764755
6734e-33 -2.4384 .01 1395997647556734e-31 0 1 .2946303446693845 .02 1 0 -1395997
647556734e-31 141 255 251 231 258 258 235 141 258 233 251 251 235 14 255 520 259
 ?247 260 261 50 242 +0 0 247 260 254 54 256 572 0 260 242 262 263 +.00707106781
186547 -2.4384 -.00707106781186547 .707106781186547 0 -.707106781186548 .2946303
446693845 .02 -.707106781186548 0 -.707106781186548 141 257 233 264 264 242 141
 264 265 257 257 242 38 265 580 0 266 241 267 0 +242 262 268 269 270 271 16 266
 543 0 ?272 273 274 265 0 0 12 38 241 581 0 274 233 265 0 -256 234 275 276 277 2
78 38 267 579 0 273 265 279 0 -280 256 281 282 283 284 54 262 571 0 285 256 280
 286 +-.00707106781186547 -2.4384 .00707106781186548 -.707106781186548 0 .707106
781186548 .2946303446693845 .02 .707106781186548 0 .707106781186548 40 6 268 0 1
 6 .00114284435358703 .340568265883063 ??-.01242640687119284 -2.144031821671785
 .03 -.01201880619186706 -2.150216385715005 .0290159649119392 -.01085448009161 -
2.15569960381721 .0262050330496737 -.00904469786320094 -2.16003837936451 .021835
8322489069 -.0066505300352907 -2.162911064326005 .0160557998081684 -.00387353891
0126705 -2.163786457971795 .00935155017120771 41 1 269 L?-.01242640687119284 -2.
144031821671785 .03 41 2 270 TF-.003861122352107415 -2.163785288097475 .00932157
394843963 -.003873538910126705 -2.163786457971795 .00935155017120771 204 28 271
 4 1.612985103818745 1.5707963267949 1.52860754977105 1.5707963267949 1.61247754
877386 1.885790301614385 1.529115104815935 1.885790301614385 1.609173177169085 2
.19701128486882 1.53241947642071 2.197011284868825 1.60327751732841 2.5083130280
4798 1.538315136261385 2.50831302804798 1.59493246329684 2.83397394447971 1.5466
60190292955 2.83397394447971 1.58490080982742 -3.109164478943835 1.5566918437623
75 -3.109164478943835 1.58485554424713 -3.107664842356305 1.55673710934266 -3.10
7664842356305 14 285 516 287 ?260 288 289 50 262 +0 0 260 288 254 54 280 570 0 2
88 262 54 290 +-1395997647556734e-33 -2.4384 -.01 -1395997647556734e-31 0 -1 .29
46303446693845 .02 -1 0 1395997647556734e-31 141 286 265 291 291 262 141 291 279
 286 286 262 38 279 578 0 292 267 57 0 +262 54 293 294 295 296 16 292 537 0 ?297
 298 273 279 0 0 12 38 57 577 0 298 279 41 0 -40 280 299 300 301 302 54 54 569 0
 303 280 40 304 +-.01 -2.4384 0 -1 0 0 .2946303446693845 .02 0 0 1 40 6 293 0 1
 6 .00114284435358703 .340568265883063 ??-.03 -2.144031821671785 .01242640687119
284 -.0290159649119392 -2.150216385715005 .01201880619186706 -.0262050330496737
 -2.15569960381721 .01085448009161 -.0218358322489069 -2.16003837936451 .0090446
9786320094 -.0160557998081684 -2.162911064326005 .00665053003529069 -.0093515501
7119801 -2.163786457971795 .003873538910150135 41 1 294 L?-.03 -2.14403182167178
5 .01242640687119284 41 2 295 TF-.00932157394843963 -2.163785288097475 .00386112
2352107415 -.00935155017119801 -2.163786457971795 .003873538910150135 204 28 296
 4 1.612985103818745 1.5707963267949 1.52860754977105 1.5707963267949 1.61247754
877386 1.885790301614385 1.529115104815935 1.885790301614385 1.609173177169085 2
.197011284868825 1.53241947642071 2.19701128486882 1.60327751732841 2.5083130280
4798 1.538315136261385 2.50831302804798 1.59493246329684 2.83397394447971 1.5466
60190292955 2.83397394447971 1.584900809827335 -3.10916447894432 1.5566918437622
9 -3.10916447894335 1.58485554424713 -3.1076648423563 1.55673710934266 -3.107664
8423563 14 303 512 305 ?288 53 306 50 54 +0 0 288 53 254 141 304 279 307 307 54
 141 307 41 304 304 54 81 1 305 810 308 303 309 0 310 311 312 14 288 514 311 ?28
5 303 313 50 280 +0 0 285 303 254 14 53 510 310 ?303 314 315 50 40 +0 0 303 314
 254 15 306 513 0 316 303 0 13 50 110 0 12 0 317 0 0 52 0 13 254 111 0 0 0 0 0 0
 63 317 19 63 112 0 12 52 43 254 V0 14 317 88 318 ?319 0 320 50 321 -0 0 319 0 2
54 81 1 318 797 308 317 322 0 323 324 325 14 319 83 324 ?170 317 326 50 327 -0 0
 170 317 254 15 320 87 0 197 317 0 53 321 115 0 317 327 328 0 +0 -2.4384 0 .2548
 0 1 0 1 0 0 51 255 327 114 0 319 329 321 0 +0 0 0 0 1 0 .2548 0 0 1 53 328 116
 0 330 321 331 0 -0 -2.4384 0 .3048 0 1 0 1 0 0 14 330 98 323 ?0 332 333 39 328
 -0 0 0 332 64 51 331 117 0 332 328 248 0 -0 0 0 0 1 0 .3048 0 0 1 14 332 103 33
4 ?330 51 335 39 331 -0 0 330 51 64 53 248 118 0 51 331 234 0 -0 0 0 .3048 0 1 0
 1 0 0 14 51 106 336 ?332 0 337 39 248 -0 0 332 0 64 81 1 336 794 308 51 338 0 0
 334 339 15 337 105 0 203 51 0 13 64 65 0 0 0 0 0 0 43 51 17 203 0 337 203 203 0
 340 201 0 0 +17 340 0 335 340 340 0 203 201 0 0 -15 335 147 0 340 332 341 15 34
1 102 0 200 332 0 17 200 0 341 200 200 0 342 198 0 0 +17 342 0 333 342 342 0 200
 198 0 0 -15 333 148 0 342 330 0 80 255 1 308 0 343 8001 0 0 0 0 3 5 0 0 0 FFFFT
FTFFFFFFF2 81 1 338 768 344 51 0 336 345 346 347 81 1 334 795 308 332 345 0 336
 323 348 83 255 3 339 .792156862745098 .819607843137255 .933333333333333 81 1 34
5 766 344 332 0 334 349 338 350 81 1 323 796 308 330 349 0 334 318 351 83 3 348
 .792156862745098 .819607843137255 .933333333333333 81 1 349 764 344 330 0 323 3
52 345 353 83 3 351 .792156862745098 .819607843137255 .933333333333333 80 1 344
 354 355 9000 1 1 1 1 1 1 1 1 0 FFFFTFTFFFFFFF1 81 1 352 762 344 319 0 324 322 3
49 356 82 255 1 353 765853800 81 1 324 798 308 319 352 0 318 357 358 81 1 322 76
0 344 317 0 318 359 352 360 82 1 356 764084328 81 1 359 758 344 53 0 310 361 322
 362 82 1 360 764674152 81 1 310 809 308 53 359 0 363 305 364 81 1 361 756 344 2
88 0 311 309 359 365 82 1 362 -1128005518 81 1 311 811 308 288 361 0 305 287 366
 81 1 309 754 344 303 0 305 367 361 368 82 1 365 -1130168206 81 1 367 752 344 28
5 0 287 369 309 370 82 1 368 -1129054094 81 1 287 812 308 285 367 0 311 371 372
 81 1 369 750 344 255 0 259 373 367 374 82 1 370 -1131282318 81 1 259 814 308 25
5 369 0 371 375 376 81 1 373 748 344 250 0 252 0 369 377 82 1 374 -1133510542 81
 1 252 816 308 250 373 0 375 0 378 82 1 377 -1136459662 81 1 375 815 308 247 379
 0 259 252 380 83 3 378 .792156862745098 .819607843137255 .933333333333333 14 24
7 522 375 ?250 255 381 50 234 +0 0 250 255 254 81 1 379 792 344 247 0 375 382 0
 383 83 3 380 .792156862745098 .819607843137255 .933333333333333 81 1 382 790 34
4 260 0 371 384 379 385 82 1 383 -1134690190 14 260 518 371 ?255 285 386 50 256
 +0 0 255 285 254 81 1 371 813 308 260 382 0 287 259 387 81 1 384 788 344 314 0
 363 388 382 389 82 1 385 -1132396430 14 314 299 363 ?53 390 391 50 392 +0 0 53
 390 254 81 1 363 808 308 314 384 0 393 310 394 81 1 388 786 344 390 0 393 395 3
84 396 82 1 389 -926220174 14 390 295 393 ?314 397 398 50 399 +0 0 314 397 254 8
1 1 393 807 308 390 388 0 400 363 401 81 1 395 784 344 397 0 400 402 388 403 82
 1 396 -893714318 14 397 291 400 ?390 404 70 50 405 +0 0 390 404 254 81 1 400 80
6 308 397 395 0 406 393 407 81 1 402 782 344 404 0 406 408 395 409 82 1 403 -894
631822 14 404 287 406 ?397 410 77 50 411 +0 0 397 410 254 81 1 406 805 308 404 4
02 0 412 400 413 81 1 408 780 344 410 0 412 414 402 415 82 1 409 -896204686 14 4
10 283 412 ?404 416 417 50 418 +0 0 404 416 254 81 1 412 804 308 410 408 0 419 4
06 420 81 1 414 778 344 416 0 419 421 408 422 82 1 415 -897777550 14 416 279 419
 ?410 423 424 50 425 +0 0 410 423 254 81 1 419 803 308 416 414 0 426 412 427 81
 1 421 776 344 423 0 426 428 414 429 82 1 422 -899350414 14 423 275 426 ?416 163
 430 50 431 +0 0 416 163 254 81 1 426 802 308 423 421 0 432 419 433 81 1 428 774
 344 163 0 432 434 421 435 82 1 429 -900923278 14 163 271 432 ?423 151 157 50 43
6 +0 0 423 151 254 81 1 432 801 308 163 428 0 437 426 438 81 1 434 772 344 151 0
 437 346 428 439 82 1 435 -902496142 14 151 267 437 ?163 170 144 50 440 +0 0 163
 170 254 81 1 437 800 308 151 434 0 357 432 441 81 1 346 770 344 170 0 357 338 4
34 442 82 1 439 -910163854 14 170 78 357 ?151 319 166 50 329 -0 0 151 319 254 81
 1 357 799 308 170 346 0 324 437 443 82 1 442 763494510 83 3 443 .79215686274509
8 .819607843137255 .933333333333333 53 329 113 0 170 399 327 0 +0 0 0 .2548 0 1
 0 1 0 0 50 255 399 309 0 390 405 329 0 +-.01242640687119284 -2.803201 .03 13959
97647556734e-31 0 1 1 0 -1395997647556734e-31 50 405 310 0 397 411 399 0 +-.03 -
2.803201 .01242640687119284 -.707106781186548 0 .707106781186548 .70710678118654
8 0 .707106781186548 50 411 311 0 404 418 405 0 +-.03 -2.803201 -.01242640687119
284 -1 0 0 0 0 1 50 418 312 0 410 425 411 0 +-.01242640687119286 -2.803201 -.03
 -.707106781186548 0 -.707106781186547 -.707106781186547 0 .707106781186548 50 4
25 313 0 416 431 418 0 +.01242640687119284 -2.803201 -.03 -1395997647556734e-31
 0 -1 -1 0 1395997647556734e-31 50 431 314 0 423 436 425 0 +.03 -2.803201 -.0124
2640687119284 .707106781186547 0 -.707106781186548 -.707106781186548 0 -.7071067
81186548 50 436 315 0 163 440 431 0 +.03 -2.803201 .01242640687119284 1 0 -13959
97647556736e-31 -1395997647556736e-31 0 -1 50 440 316 0 151 392 436 0 +.01242640
687119284 -2.803201 .03 .707106781186548 0 .707106781186547 .707106781186548 0 -
.707106781186548 53 392 317 0 314 0 440 0 -0 -2.4384 0 .2748 0 1 0 1 0 0 83 3 44
1 .792156862745098 .819607843137255 .933333333333333 83 3 438 .792156862745098 .
819607843137255 .933333333333333 83 3 433 .792156862745098 .819607843137255 .933
333333333333 15 430 278 0 164 423 0 17 164 0 430 90 165 91 141 158 0 444 -17 90
 0 430 138 164 88 444 224 0 445 +17 165 0 430 164 138 139 167 168 0 161 -17 444
 0 386 446 447 91 90 224 0 448 -15 386 519 0 447 260 0 17 446 0 386 449 444 97 4
48 274 0 450 -17 447 0 386 444 449 88 451 273 0 0 +17 448 0 381 452 450 91 446 2
74 0 0 +15 381 523 0 448 247 0 17 452 0 381 453 448 118 93 222 0 146 -17 450 0 3
81 448 453 97 96 217 0 0 -16 274 546 0 ?448 266 240 241 0 0 12 16 240 549 0 ?117
 274 232 233 0 0 12 17 117 0 253 454 155 115 455 240 0 456 +15 253 525 0 117 250
 0 17 454 0 253 120 117 94 221 219 0 453 -17 155 0 253 117 120 121 146 156 0 0 -
17 455 0 261 457 456 121 117 240 0 155 -17 456 0 261 455 272 115 114 205 0 221 -
15 261 521 0 272 255 0 17 272 0 261 456 457 112 458 266 0 0 +17 114 0 391 111 22
1 112 456 205 0 459 +17 221 0 391 114 96 115 454 219 0 0 +15 391 405 0 96 314 0
 17 96 0 391 221 99 94 450 217 0 454 +17 99 0 391 96 102 97 449 215 0 446 +17 10
2 0 391 99 105 100 460 213 0 451 +17 449 0 386 447 446 100 99 215 0 0 -17 105 0
 391 102 108 103 461 211 0 462 +17 460 0 313 463 451 103 102 213 0 0 -17 451 0 3
13 460 464 100 447 273 0 449 -15 313 515 0 463 288 0 17 464 0 313 451 463 88 87
 226 0 447 -16 273 540 0 ?447 292 266 267 0 0 12 17 463 0 313 464 460 83 462 298
 0 0 +17 87 0 424 135 445 83 464 226 0 465 +15 424 282 0 445 416 0 17 135 0 424
 466 87 133 465 188 0 467 +17 445 0 424 87 466 88 138 190 0 464 -17 465 0 417 82
 467 83 135 188 0 468 -15 417 286 0 465 410 0 17 82 0 417 132 465 76 468 228 0 7
9 +17 467 0 417 465 132 133 469 470 0 471 -17 468 0 315 462 472 83 82 228 0 463
 -15 315 511 0 462 53 0 17 462 0 315 461 468 103 463 298 0 460 -17 472 0 315 468
 461 76 316 56 0 80 -17 461 0 315 472 462 106 105 211 0 316 -17 316 0 306 473 80
 106 472 56 0 0 +16 56 531 0 ?316 174 298 41 0 0 12 17 80 0 306 316 474 76 75 81
 0 0 -17 474 0 306 80 473 69 297 292 0 73 -17 473 0 306 474 316 109 108 209 0 29
7 -17 297 0 289 459 73 109 474 292 0 0 +17 73 0 289 297 458 69 68 66 0 0 -15 289
 517 0 297 285 0 17 458 0 289 73 459 45 272 266 0 457 -17 459 0 289 458 297 112
 111 207 0 272 -17 457 0 261 272 455 45 65 44 0 0 -17 65 0 398 125 74 121 457 44
 0 150 +15 398 298 0 74 390 0 17 125 0 398 173 65 123 150 179 0 145 +17 74 0 398
 65 173 45 71 182 0 458 -17 150 0 144 146 145 121 125 179 0 455 -17 173 0 398 74
 125 126 154 174 0 172 -17 71 0 70 475 68 126 74 182 0 173 +15 70 294 0 72 397 0
 17 475 0 70 72 71 128 172 159 0 476 -17 72 0 70 68 475 69 78 184 0 474 -17 172
 0 166 154 476 126 475 159 0 0 +16 159 250 0 ?172 148 477 478 0 0 12 17 476 0 16
6 172 469 128 479 477 0 0 +17 469 0 166 476 471 130 467 470 0 0 +17 479 0 77 79
 78 130 476 477 0 469 -16 477 249 0 ?476 159 470 480 0 0 12 16 470 248 0 ?469 47
7 481 482 0 0 12 31 480 341 0 477 478 482 0 +-.03 0 0 1 0 0 0 0 -1 .253027745514
2025 31 478 342 0 159 0 480 0 +-.0212132034355964 0 .0212132034355964 .707106781
186547 0 -.707106781186548 -.707106781186548 0 -.707106781186548 .25302774551420
25 31 482 340 0 470 480 483 0 +-.0212132034355964 0 -.0212132034355964 .70710678
1186548 0 .707106781186547 .707106781186548 0 -.707106781186548 .253027745514202
5 31 483 339 0 481 482 177 0 +-4187992942670205e-33 0 -.03 1395997647556734e-31
 0 1 1 0 -1395997647556734e-31 .2530277455142025 16 481 247 0 ?471 470 168 483 0
 0 12 31 177 338 0 168 483 169 0 +.0212132034355964 0 -.02121320343559645 -.7071
06781186548 0 .707106781186548 .707106781186548 0 .707106781186548 .253027745514
2025 16 168 246 0 ?167 481 162 177 0 0 12 17 167 0 166 471 161 136 165 168 0 0 +
17 471 0 166 469 167 133 466 481 0 0 +17 466 0 424 445 135 136 471 481 0 167 -15
 77 290 0 79 404 0 17 79 0 77 75 479 76 132 186 0 472 -17 78 0 77 479 75 128 72
 184 0 475 +17 132 0 417 467 82 130 79 186 0 479 +17 111 0 391 108 114 109 459 2
07 0 473 +17 108 0 391 105 111 106 473 209 0 461 +16 298 534 0 ?463 56 292 57 0
 0 12 17 138 0 430 165 90 136 445 190 0 466 +17 120 0 253 155 454 118 453 232 0
 452 +17 453 0 381 450 452 94 120 232 0 0 -17 93 0 157 141 147 91 452 222 0 164
 +83 3 427 .792156862745098 .819607843137255 .933333333333333 83 3 420 .79215686
2745098 .819607843137255 .933333333333333 83 3 413 .792156862745098 .81960784313
7255 .933333333333333 83 3 407 .792156862745098 .819607843137255 .93333333333333
3 83 3 401 .792156862745098 .819607843137255 .933333333333333 83 3 394 .79215686
2745098 .819607843137255 .933333333333333 83 3 387 .792156862745098 .81960784313
7255 .933333333333333 83 3 376 .792156862745098 .819607843137255 .93333333333333
3 83 3 372 .792156862745098 .819607843137255 .933333333333333 83 3 366 .79215686
2745098 .819607843137255 .933333333333333 83 3 364 .792156862745098 .81960784313
7255 .933333333333333 83 3 358 .792156862745098 .819607843137255 .93333333333333
3 79 255 14 355 SWEntUnchanged82 1 350 766443624 82 1 347 766771304 79 15 343 SD
L/TYSA_COLOUR17 197 0 320 197 197 0 484 195 0 0 +17 484 0 326 484 484 0 197 195
 0 0 -15 326 150 0 484 319 485 15 485 82 0 194 319 0 17 194 0 485 194 194 0 486
 181 0 0 +17 486 0 171 486 486 0 194 181 0 0 -15 171 151 0 486 170 0 83 3 325 .7
92156862745098 .819607843137255 .933333333333333 19 52 61 0 12 0 63 39 S0 83 3 3
12 .792156862745098 .819607843137255 .933333333333333 40 6 299 0 1 6 .0011428443
5358703 .340568265883063 ??-.01242640687119286 -2.144031821671785 -.03 -.0120188
0619186706 -2.150216385715005 -.0290159649119392 -.01085448009161 -2.15569960381
721 -.0262050330496737 -.00904469786320095 -2.16003837936451 -.0218358322489069
 -.00665053003529069 -2.162911064326005 -.0160557998081684 -.00387353891015013 -
2.163786457971795 -.00935155017119801 41 1 300 L?-.01242640687119286 -2.14403182
1671785 -.03 41 2 301 TF-.00386112235210742 -2.163785288097475 -.009321573948439
63 -.00387353891015013 -2.163786457971795 -.00935155017119801 204 28 302 4 1.612
985103818745 1.5707963267949 1.52860754977105 1.5707963267949 1.61247754877386 1
.885790301614385 1.529115104815935 1.885790301614385 1.609173177169085 2.1970112
84868825 1.53241947642071 2.19701128486882 1.60327751732841 2.50831302804798 1.5
38315136261385 2.50831302804798 1.59493246329684 2.83397394447971 1.546660190292
955 2.83397394447971 1.584900809827335 -3.10916447894432 1.55669184376229 -3.109
16447894335 1.58485554424713 -3.107664842356305 1.55673710934266 -3.107664842356
305 141 290 267 487 487 280 141 487 57 290 290 280 40 6 281 0 1 6 .0011428443535
8703 .340568265883063 ??.01242640687119284 -2.144031821671785 -.03 .012018806191
86704 -2.150216385715005 -.0290159649119392 .01085448009160998 -2.15569960381721
 -.0262050330496737 .00904469786320093 -2.16003837936451 -.0218358322489069 .006
65053003529069 -2.162911064326005 -.0160557998081684 .00387353891012669 -2.16378
6457971795 -.00935155017120772 41 1 282 L?.01242640687119284 -2.144031821671785
 -.03 41 2 283 TF.00386112235210741 -2.163785288097475 -.00932157394843963 .0038
7353891012669 -2.163786457971795 -.00935155017120772 204 28 284 4 1.612985103818
745 1.5707963267949 1.52860754977105 1.5707963267949 1.61247754877386 1.88579030
1614385 1.529115104815935 1.885790301614385 1.609173177169085 2.19701128486882 1
.53241947642071 2.197011284868825 1.60327751732841 2.50831302804798 1.5383151362
61385 2.50831302804798 1.59493246329684 2.83397394447971 1.546660190292955 2.833
97394447971 1.58490080982742 -3.109164478943835 1.556691843762375 -3.10916447894
3835 1.58485554424713 -3.1076648423563 1.55673710934266 -3.1076648423563 40 6 27
5 0 1 6 .00114284435358703 .340568265883063 ??.03 -2.144031821671785 -.012426406
87119284 .0290159649119392 -2.150216385715005 -.01201880619186706 .0262050330496
737 -2.15569960381721 -.01085448009161 .0218358322489069 -2.16003837936451 -.009
04469786320094 .0160557998081684 -2.162911064326005 -.00665053003529068 .0093515
5017119802 -2.163786457971795 -.003873538910150115 41 1 276 L?.03 -2.14403182167
1785 -.01242640687119284 41 2 277 TF.00932157394843963 -2.163785288097475 -.0038
6112235210741 .00935155017119802 -2.163786457971795 -.003873538910150115 204 28
 278 4 1.612985103818745 1.5707963267949 1.52860754977105 1.5707963267949 1.6124
7754877386 1.885790301614385 1.529115104815935 1.885790301614385 1.6091731771690
85 2.197011284868825 1.53241947642071 2.19701128486882 1.60327751732841 2.508313
02804798 1.538315136261385 2.50831302804798 1.59493246329684 2.83397394447971 1.
546660190292955 2.83397394447971 1.584900809827335 -3.10916447894432 1.556691843
76229 -3.10916447894335 1.58485554424713 -3.1076648423563 1.55673710934266 -3.10
76648423563 141 263 241 488 488 256 141 488 267 263 263 256 141 249 231 489 489
 234 141 489 241 249 249 234 40 6 243 0 1 6 .00114284435358703 .340568265883063
 ??.01242640687119284 -2.144031821671785 .03 .01201880619186706 -2.1502163857150
05 .0290159649119392 .01085448009160998 -2.15569960381721 .0262050330496737 .009
04469786320094 -2.16003837936451 .0218358322489069 .00665053003529068 -2.1629110
64326005 .0160557998081684 .003873538910150125 -2.163786457971795 .0093515501711
9801 41 1 244 L?.01242640687119284 -2.144031821671785 .03 41 2 245 TF.0038611223
5210741 -2.163785288097475 .00932157394843963 .003873538910150125 -2.16378645797
1795 .00935155017119801 204 28 246 4 1.612985103818745 1.5707963267949 1.5286075
4977105 1.5707963267949 1.61247754877386 1.885790301614385 1.529115104815935 1.8
85790301614385 1.609173177169085 2.197011284868825 1.53241947642071 2.1970112848
6882 1.60327751732841 2.50831302804798 1.538315136261385 2.50831302804798 1.5949
3246329684 2.83397394447971 1.546660190292955 2.83397394447971 1.584900809827335
 -3.10916447894432 1.55669184376229 -3.10916447894335 1.58485554424713 -3.107664
8423563 1.55673710934266 -3.1076648423563 40 6 58 0 1 6 .00114284435358703 .3405
68265883063 ??-.03 -2.144031821671785 -.01242640687119284 -.0290159649119392 -2.
150216385715005 -.01201880619186706 -.0262050330496737 -2.15569960381721 -.01085
448009161 -.0218358322489069 -2.16003837936451 -.00904469786320094 -.01605579980
81684 -2.162911064326005 -.00665053003529069 -.00935155017120773 -2.163786457971
795 -.003873538910126685 41 1 59 L?-.03 -2.144031821671785 -.01242640687119284 4
1 2 60 TF-.00932157394843963 -2.163785288097475 -.003861122352107415 -.009351550
17120773 -2.163786457971795 -.003873538910126685 204 28 61 4 1.612985103818745 1
.5707963267949 1.52860754977105 1.5707963267949 1.61247754877386 1.8857903016143
85 1.529115104815935 1.885790301614385 1.609173177169085 2.19701128486882 1.5324
1947642071 2.197011284868825 1.60327751732841 2.50831302804798 1.538315136261385
 2.50831302804798 1.59493246329684 2.83397394447971 1.546660190292955 2.83397394
447971 1.58490080982742 -3.109164478943835 1.556691843762375 -3.109164478943835
 1.58485554424713 -3.1076648423563 1.55673710934266 -3.1076648423563 141 55 57 4
90 490 40 141 490 41 55 55 40 53 49 186 0 12 491 37 0 -0 -2.4384 0 .2748 0 1 0 1
 0 0 53 491 185 0 12 492 49 0 -0 -2.4384 0 .2748 0 1 0 1 0 0 53 492 184 0 12 0 4
91 0 -0 -2.4384 0 .2748 0 1 0 1 0 0 74 4 CI16 index_map_offset0 0 1 dCCZ20 48 4
 0 0 379 46 252 35 0 0 0 0 0 0 0 0 0 0 0 0 0 0 0 0 81 3 46 644 493 12 0 35 0 0 4
94 495 496 80 3 493 497 498 9000 0 1 0 0 1 1 1 1 0 FFTFFFFFFFFFFF1 1 1 82 1 494
 77099 82 1 495 108 82 7 496 77236 77231 77222 77204 77195 77186 510155 79 13 49
8 TempAxisFaces80 1 5 499 500 8017 0 0 0 0 0 0 0 0 0 TTTTTTTTTTTTTF3 84 255 4 47
 Tank79 13 500 SDL/TYSA_NAME81 1 10 1149 5 7 0 0 0 0 501 70 11 0 4 T7 0 0 3 20 1
 502 502 13 13 57 0 7 0 503 0 0 504 0 67 255 14 54 0 503 505 0 0 +506 0 -1 0 ?30
 15 56 0 18 507 0 0 +0 .0015 0 0 -1 0 29 16 45 0 508 509 0 2.1 -.0015 0 19 17 19
 0 7 504 0 510 V0 16 18 48 0 ?511 0 512 15 0 0 7 18 19 16 0 513 0 514 515 ?7 17
 513 0 516 517 517 19 518 519 0 520 +18 514 13 0 518 19 508 521 ?7 29 515 18 0 1
9 521 509 2.1 .0015 0 29 521 15 0 514 0 515 0 .0015 0 29 509 46 0 522 515 16 0 -
.0015 0 18 522 41 0 523 508 0 509 ?7 17 523 0 524 525 525 522 526 527 0 511 -18
 508 40 0 526 514 522 16 ?7 17 526 0 528 520 511 508 523 527 0 529 +15 528 49 0
 526 530 0 17 520 0 528 518 526 19 529 512 0 531 -17 511 0 528 526 518 522 532 1
8 0 533 +16 527 32 0 ?526 534 535 536 0 0 7 17 529 0 537 533 531 508 520 512 0 5
25 +15 537 51 0 533 503 0 17 533 0 537 532 529 522 525 535 0 0 +17 531 0 537 529
 532 19 517 534 0 0 -16 512 47 0 ?529 18 519 507 0 0 7 17 525 0 524 523 523 508
 533 535 0 0 -15 524 31 0 525 538 0 16 535 36 0 ?533 527 539 540 0 0 7 16 539 10
2 0 ?541 535 542 543 0 0 7 134 255 540 44 0 535 544 536 0 +545 546 30 544 11 0 5
19 506 540 0 +0 .0015 0 1 0 0 30 536 43 0 527 540 507 0 +0 -.0015 0 1 0 0 136 25
5 545 3 5 3 3 6 FFF1 547 548 549 135 255 546 2 0 45 255 15 547 2.1 -.0015 562301
772216165e-33 1.912663678043715 -.0015 -.1047853758595316 1.20353052818249 -.001
5 -.1073177579113542 .379616198533963 -.0015 -.397473028522268 0 -.0015 0 127 25
5 3 548 4 1 4 128 255 3 549 0 .28711889813951 1 30 507 55 0 512 536 15 0 +2.1 .0
015 0 0 -1 0 16 519 9 0 ?513 512 534 544 0 0 7 134 506 7 0 534 543 544 550 +551
 552 16 534 5 0 ?517 519 527 506 0 0 7 31 543 119 0 539 553 506 0 -.08 -.0015 -.
03 0 1 0 0 0 1 .02 141 550 14 550 550 506 136 551 3 5 3 3 6 FFF1 554 555 556 135
 552 2 0 45 15 554 2.1 .0015 562301772216165e-33 1.912663678043715 .0015 -.10478
53758595316 1.20353052818249 .0015 -.1073177579113542 .379616198533963 .0015 -.3
97473028522268 0 .0015 0 127 3 555 4 1 4 128 3 556 0 .28711889813951 1 31 553 12
0 0 542 557 543 0 +.08 .0015 -.03 0 1 0 0 0 1 .02 16 542 99 0 ?558 539 559 553 0
 0 7 31 557 892 0 560 561 553 0 -1.92 -.0015 -.03 0 1 0 0 0 1 .02 16 560 765 0 ?
562 563 564 557 0 0 7 31 561 893 0 564 565 557 0 +1.92 .0015 -.03 0 1 0 0 0 1 .0
2 16 564 762 0 ?566 560 0 561 0 0 7 31 565 894 0 567 568 561 0 -1.84 -.0015 -.03
 0 1 0 0 0 1 .02 16 567 749 0 ?569 570 563 565 0 0 7 31 568 895 0 563 571 565 0
 +1.84 .0015 -.03 0 1 0 0 0 1 .02 16 563 746 0 ?572 567 560 568 0 0 7 31 571 896
 0 573 574 568 0 -1.76 -.0015 -.03 0 1 0 0 0 1 .02 16 573 733 0 ?575 576 570 571
 0 0 7 31 574 897 0 570 577 571 0 +1.76 .0015 -.03 0 1 0 0 0 1 .02 16 570 730 0
 ?578 573 567 574 0 0 7 31 577 898 0 579 580 574 0 -1.68 -.0015 -.03 0 1 0 0 0 1
 .02 16 579 717 0 ?581 582 576 577 0 0 7 31 580 899 0 576 583 577 0 +1.68 .0015
 -.03 0 1 0 0 0 1 .02 16 576 714 0 ?584 579 573 580 0 0 7 31 583 900 0 585 586 5
80 0 -1.6 -.0015 -.03 0 1 0 0 0 1 .02 16 585 701 0 ?587 588 582 583 0 0 7 31 586
 901 0 582 589 583 0 +1.6 .0015 -.03 0 1 0 0 0 1 .02 16 582 698 0 ?590 585 579 5
86 0 0 7 31 589 902 0 591 592 586 0 -1.52 -.0015 -.03 0 1 0 0 0 1 .02 16 591 685
 0 ?593 594 588 589 0 0 7 31 592 903 0 588 595 589 0 +1.52 .0015 -.03 0 1 0 0 0
 1 .02 16 588 682 0 ?596 591 585 592 0 0 7 31 595 904 0 597 598 592 0 -1.44 -.00
15 -.03 0 1 0 0 0 1 .02 16 597 669 0 ?599 600 594 595 0 0 7 31 598 905 0 594 601
 595 0 +1.44 .0015 -.03 0 1 0 0 0 1 .02 16 594 666 0 ?602 597 591 598 0 0 7 31 6
01 906 0 603 604 598 0 -1.36 -.0015 -.03 0 1 0 0 0 1 .02 16 603 653 0 ?605 606 6
00 601 0 0 7 31 604 907 0 600 607 601 0 +1.36 .0015 -.03 0 1 0 0 0 1 .02 16 600
 650 0 ?608 603 597 604 0 0 7 31 607 908 0 609 610 604 0 -1.28 -.0015 -.03 0 1 0
 0 0 1 .02 16 609 637 0 ?611 612 606 607 0 0 7 31 610 909 0 606 613 607 0 +1.28
 .0015 -.03 0 1 0 0 0 1 .02 16 606 634 0 ?614 609 603 610 0 0 7 31 613 910 0 615
 616 610 0 -1.2 -.0015 -.03 0 1 0 0 0 1 .02 16 615 621 0 ?617 618 612 613 0 0 7
 31 616 911 0 612 619 613 0 +1.2 .0015 -.03 0 1 0 0 0 1 .02 16 612 618 0 ?620 61
5 609 616 0 0 7 31 619 912 0 621 622 616 0 -1.12 -.0015 -.03 0 1 0 0 0 1 .02 16
 621 605 0 ?623 624 618 619 0 0 7 31 622 913 0 618 625 619 0 +1.12 .0015 -.03 0
 1 0 0 0 1 .02 16 618 602 0 ?626 621 615 622 0 0 7 31 625 914 0 627 628 622 0 -1
.04 -.0015 -.03 0 1 0 0 0 1 .02 16 627 589 0 ?629 630 624 625 0 0 7 31 628 915 0
 624 631 625 0 +1.04 .0015 -.03 0 1 0 0 0 1 .02 16 624 586 0 ?632 627 621 628 0
 0 7 31 631 916 0 633 634 628 0 -.96 -.0015 -.03 0 1 0 0 0 1 .02 16 633 573 0 ?6
35 636 630 631 0 0 7 31 634 917 0 630 637 631 0 +.96 .0015 -.03 0 1 0 0 0 1 .02
 16 630 570 0 ?638 633 627 634 0 0 7 31 637 918 0 639 640 634 0 -.88 -.0015 -.03
 0 1 0 0 0 1 .02 16 639 557 0 ?641 642 636 637 0 0 7 31 640 919 0 636 643 637 0
 +.88 .0015 -.03 0 1 0 0 0 1 .02 16 636 554 0 ?644 639 633 640 0 0 7 31 643 920
 0 645 646 640 0 -.8 -.0015 -.03 0 1 0 0 0 1 .02 16 645 541 0 ?647 648 642 643 0
 0 7 31 646 921 0 642 649 643 0 +.8 .0015 -.03 0 1 0 0 0 1 .02 16 642 538 0 ?650
 645 639 646 0 0 7 31 649 922 0 651 652 646 0 -.72 -.0015 -.03 0 1 0 0 0 1 .02 1
6 651 525 0 ?653 654 648 649 0 0 7 31 652 923 0 648 655 649 0 +.72 .0015 -.03 0
 1 0 0 0 1 .02 16 648 522 0 ?656 651 645 652 0 0 7 31 655 924 0 657 658 652 0 -.
64 -.0015 -.03 0 1 0 0 0 1 .02 16 657 509 0 ?659 660 654 655 0 0 7 31 658 925 0
 654 661 655 0 +.64 .0015 -.03 0 1 0 0 0 1 .02 16 654 506 0 ?662 657 651 658 0 0
 7 31 661 926 0 663 664 658 0 -.56 -.0015 -.03 0 1 0 0 0 1 .02 16 663 493 0 ?665
 666 660 661 0 0 7 31 664 927 0 660 667 661 0 +.56 .0015 -.03 0 1 0 0 0 1 .02 16
 660 490 0 ?668 663 657 664 0 0 7 31 667 928 0 669 670 664 0 -.48 -.0015 -.03 0
 1 0 0 0 1 .02 16 669 477 0 ?671 672 666 667 0 0 7 31 670 929 0 666 673 667 0 +.
48 .0015 -.03 0 1 0 0 0 1 .02 16 666 474 0 ?674 669 663 670 0 0 7 31 673 930 0 6
75 676 670 0 -.4 -.0015 -.03 0 1 0 0 0 1 .02 16 675 461 0 ?677 678 672 673 0 0 7
 31 676 931 0 672 679 673 0 +.4 .0015 -.03 0 1 0 0 0 1 .02 16 672 458 0 ?680 675
 669 676 0 0 7 31 679 932 0 681 682 676 0 -.32 -.0015 -.03 0 1 0 0 0 1 .02 16 68
1 445 0 ?683 684 678 679 0 0 7 31 682 933 0 678 685 679 0 +.32 .0015 -.03 0 1 0
 0 0 1 .02 16 678 442 0 ?686 681 675 682 0 0 7 31 685 934 0 687 688 682 0 -.24 -
.0015 -.03 0 1 0 0 0 1 .02 16 687 429 0 ?689 690 684 685 0 0 7 31 688 935 0 684
 691 685 0 +.24 .0015 -.03 0 1 0 0 0 1 .02 16 684 426 0 ?692 687 681 688 0 0 7 3
1 691 936 0 559 693 688 0 -.16 -.0015 -.03 0 1 0 0 0 1 .02 16 559 413 0 ?694 542
 690 691 0 0 7 31 693 937 0 690 0 691 0 +.16 .0015 -.03 0 1 0 0 0 1 .02 16 690 4
10 0 ?695 559 687 693 0 0 7 17 695 0 696 695 695 0 697 690 0 0 +15 696 417 0 695
 698 699 17 697 0 700 697 697 0 695 690 0 0 -15 700 405 0 697 701 702 14 701 1 7
03 ?538 530 700 13 704 +0 0 538 530 510 15 702 399 0 705 701 706 17 705 0 702 70
5 705 0 692 684 0 0 -15 706 393 0 707 701 708 17 707 0 706 707 707 0 686 678 0 0
 -15 708 387 0 709 701 710 17 709 0 708 709 709 0 680 672 0 0 -15 710 381 0 711
 701 712 17 711 0 710 711 711 0 674 666 0 0 -15 712 375 0 713 701 714 17 713 0 7
12 713 713 0 668 660 0 0 -15 714 369 0 715 701 716 17 715 0 714 715 715 0 662 65
4 0 0 -15 716 363 0 717 701 718 17 717 0 716 717 717 0 656 648 0 0 -15 718 357 0
 719 701 720 17 719 0 718 719 719 0 650 642 0 0 -15 720 351 0 721 701 722 17 721
 0 720 721 721 0 644 636 0 0 -15 722 345 0 723 701 724 17 723 0 722 723 723 0 63
8 630 0 0 -15 724 339 0 725 701 726 17 725 0 724 725 725 0 632 624 0 0 -15 726 3
33 0 727 701 728 17 727 0 726 727 727 0 626 618 0 0 -15 728 327 0 729 701 730 17
 729 0 728 729 729 0 620 612 0 0 -15 730 321 0 731 701 732 17 731 0 730 731 731
 0 614 606 0 0 -15 732 315 0 733 701 734 17 733 0 732 733 733 0 608 600 0 0 -15
 734 309 0 735 701 736 17 735 0 734 735 735 0 602 594 0 0 -15 736 303 0 737 701
 738 17 737 0 736 737 737 0 596 588 0 0 -15 738 297 0 739 701 740 17 739 0 738 7
39 739 0 590 582 0 0 -15 740 291 0 741 701 742 17 741 0 740 741 741 0 584 576 0
 0 -15 742 285 0 743 701 744 17 743 0 742 743 743 0 578 570 0 0 -15 744 279 0 74
5 701 746 17 745 0 744 745 745 0 572 563 0 0 -15 746 273 0 747 701 748 17 747 0
 746 747 747 0 566 564 0 0 -15 748 94 0 749 701 516 17 749 0 748 749 749 0 558 5
42 0 0 -15 516 4 0 517 701 0 17 517 0 516 513 513 514 531 534 0 532 +17 532 0 53
7 531 533 514 511 18 0 0 -17 558 0 750 558 558 0 749 542 0 0 +15 750 106 0 558 7
51 752 14 751 103 753 ?754 538 750 13 755 -0 0 754 538 510 15 752 107 0 541 751
 0 17 541 0 752 541 541 0 756 539 0 0 +17 756 0 757 756 756 0 541 539 0 0 -15 75
7 87 0 756 538 524 14 538 30 758 ?751 701 759 13 760 -0 0 751 701 510 81 1 758 1
124 308 538 761 0 703 753 762 15 759 266 0 763 538 764 50 760 42 0 538 704 505 0
 +1.013540341785458 -.0015 -.203426903470446 0 1 0 0 0 1 13 510 20 0 0 0 0 0 0 1
7 503 14 503 52 765 ?530 0 537 13 14 -0 0 530 0 510 81 1 765 1121 308 503 766 0
 0 767 768 14 530 50 767 ?701 503 528 13 505 -0 0 701 503 510 81 1 767 1122 308
 530 769 0 765 703 770 50 505 53 0 530 760 14 0 +0 .0015 0 0 0 -1 -1 0 0 81 1 76
9 1073 344 530 0 767 766 771 772 81 1 703 1123 308 701 773 0 767 758 774 83 3 77
0 .792156862745098 .819607843137255 .933333333333333 81 1 773 1065 344 701 0 703
 0 775 776 83 3 774 .792156862745098 .819607843137255 .933333333333333 81 1 775
 1067 344 751 0 753 773 761 777 82 1 776 1986265235 81 1 753 1125 308 751 775 0
 758 778 779 81 1 761 1069 344 538 0 758 775 766 780 82 1 777 2012610706 81 1 76
6 1071 344 503 0 765 761 769 781 82 1 780 1989542035 82 1 781 1990328463 81 1 77
8 1126 308 754 771 0 753 782 783 83 3 779 .792156862745098 .819607843137255 .933
333333333333 14 754 766 778 ?784 751 785 13 786 -0 0 784 751 510 81 1 771 1075 3
44 754 0 778 769 787 788 81 1 782 1127 308 784 787 0 778 789 790 83 3 783 .79215
6862745098 .819607843137255 .933333333333333 14 784 750 782 ?791 754 792 13 793
 -0 0 791 754 510 81 1 787 1077 344 784 0 782 771 794 795 81 1 789 1128 308 791
 794 0 782 796 797 83 3 790 .792156862745098 .819607843137255 .933333333333333 1
4 791 734 789 ?798 784 799 13 800 -0 0 798 784 510 81 1 794 1079 344 791 0 789 7
87 801 802 81 1 796 1129 308 798 801 0 789 803 804 83 3 797 .792156862745098 .81
9607843137255 .933333333333333 14 798 718 796 ?805 791 806 13 807 -0 0 805 791 5
10 81 1 801 1081 344 798 0 796 794 808 809 81 1 803 1130 308 805 808 0 796 810 8
11 83 3 804 .792156862745098 .819607843137255 .933333333333333 14 805 702 803 ?8
12 798 813 13 814 -0 0 812 798 510 81 1 808 1083 344 805 0 803 801 815 816 81 1
 810 1131 308 812 815 0 803 817 818 83 3 811 .792156862745098 .819607843137255 .
933333333333333 14 812 686 810 ?819 805 820 13 821 -0 0 819 805 510 81 1 815 108
5 344 812 0 810 808 822 823 81 1 817 1132 308 819 822 0 810 824 825 83 3 818 .79
2156862745098 .819607843137255 .933333333333333 14 819 670 817 ?826 812 827 13 8
28 -0 0 826 812 510 81 1 822 1087 344 819 0 817 815 829 830 81 1 824 1133 308 82
6 829 0 817 831 832 83 3 825 .792156862745098 .819607843137255 .933333333333333
 14 826 654 824 ?833 819 834 13 835 -0 0 833 819 510 81 1 829 1089 344 826 0 824
 822 836 837 81 1 831 1134 308 833 836 0 824 838 839 83 3 832 .792156862745098 .
819607843137255 .933333333333333 14 833 638 831 ?840 826 841 13 842 -0 0 840 826
 510 81 1 836 1091 344 833 0 831 829 843 844 81 1 838 1135 308 840 843 0 831 845
 846 83 3 839 .792156862745098 .819607843137255 .933333333333333 14 840 622 838
 ?847 833 848 13 849 -0 0 847 833 510 81 1 843 1093 344 840 0 838 836 850 851 81
 1 845 1136 308 847 850 0 838 852 853 83 3 846 .792156862745098 .819607843137255
 .933333333333333 14 847 606 845 ?854 840 855 13 856 -0 0 854 840 510 81 1 850 1
095 344 847 0 845 843 857 858 81 1 852 1137 308 854 857 0 845 859 860 83 3 853 .
792156862745098 .819607843137255 .933333333333333 14 854 590 852 ?861 847 862 13
 863 -0 0 861 847 510 81 1 857 1097 344 854 0 852 850 864 865 81 1 859 1138 308
 861 864 0 852 866 867 83 3 860 .792156862745098 .819607843137255 .9333333333333
33 14 861 574 859 ?868 854 869 13 870 -0 0 868 854 510 81 1 864 1099 344 861 0 8
59 857 871 872 81 1 866 1139 308 868 871 0 859 873 874 83 3 867 .792156862745098
 .819607843137255 .933333333333333 14 868 558 866 ?875 861 876 13 877 -0 0 875 8
61 510 81 1 871 1101 344 868 0 866 864 878 879 81 1 873 1140 308 875 878 0 866 8
80 881 83 3 874 .792156862745098 .819607843137255 .933333333333333 14 875 542 87
3 ?882 868 883 13 884 -0 0 882 868 510 81 1 878 1103 344 875 0 873 871 885 886 8
1 1 880 1141 308 882 885 0 873 887 888 83 3 881 .792156862745098 .81960784313725
5 .933333333333333 14 882 526 880 ?889 875 890 13 891 -0 0 889 875 510 81 1 885
 1105 344 882 0 880 878 892 893 81 1 887 1142 308 889 892 0 880 894 895 83 3 888
 .792156862745098 .819607843137255 .933333333333333 14 889 510 887 ?896 882 897
 13 898 -0 0 896 882 510 81 1 892 1107 344 889 0 887 885 899 900 81 1 894 1143 3
08 896 899 0 887 901 902 83 3 895 .792156862745098 .819607843137255 .93333333333
3333 14 896 494 894 ?903 889 904 13 905 -0 0 903 889 510 81 1 899 1109 344 896 0
 894 892 906 907 81 1 901 1144 308 903 906 0 894 908 909 83 3 902 .7921568627450
98 .819607843137255 .933333333333333 14 903 478 901 ?910 896 911 13 912 -0 0 910
 896 510 81 1 906 1111 344 903 0 901 899 913 914 81 1 908 1145 308 910 913 0 901
 915 916 83 3 909 .792156862745098 .819607843137255 .933333333333333 14 910 462
 908 ?917 903 918 13 919 -0 0 917 903 510 81 1 913 1113 344 910 0 908 906 920 92
1 81 1 915 1146 308 917 920 0 908 922 923 83 3 916 .792156862745098 .81960784313
7255 .933333333333333 14 917 446 915 ?924 910 925 13 926 -0 0 924 910 510 81 1 9
20 1115 344 917 0 915 913 927 928 81 1 922 1147 308 924 927 0 915 929 930 83 3 9
23 .792156862745098 .819607843137255 .933333333333333 14 924 430 922 ?698 917 93
1 13 932 -0 0 698 917 510 81 1 927 1117 344 924 0 922 920 933 934 81 1 929 1148
 308 698 933 0 922 0 935 83 3 930 .792156862745098 .819607843137255 .93333333333
3333 14 698 414 929 ?0 924 696 13 936 -0 0 0 924 510 81 1 933 1119 344 698 0 929
 927 0 937 83 3 935 .792156862745098 .819607843137255 .933333333333333 82 1 937
 2099773587 51 936 889 0 698 0 932 0 +.16 -.001501 -.03 0 1 0 .02 0 0 1 51 932 8
86 0 924 936 926 0 +.24 -.001501 -.03 0 1 0 .02 0 0 1 51 926 883 0 917 932 919 0
 +.32 -.001501 -.03 0 1 0 .02 0 0 1 51 919 880 0 910 926 912 0 +.4 -.001501 -.03
 0 1 0 .02 0 0 1 51 912 877 0 903 919 905 0 +.48 -.001501 -.03 0 1 0 .02 0 0 1 5
1 905 874 0 896 912 898 0 +.56 -.001501 -.03 0 1 0 .02 0 0 1 51 898 871 0 889 90
5 891 0 +.64 -.001501 -.03 0 1 0 .02 0 0 1 51 891 868 0 882 898 884 0 +.72 -.001
501 -.03 0 1 0 .02 0 0 1 51 884 865 0 875 891 877 0 +.8 -.001501 -.03 0 1 0 .02
 0 0 1 51 877 862 0 868 884 870 0 +.88 -.001501 -.03 0 1 0 .02 0 0 1 51 870 859
 0 861 877 863 0 +.96 -.001501 -.03 0 1 0 .02 0 0 1 51 863 856 0 854 870 856 0 +
1.04 -.001501 -.03 0 1 0 .02 0 0 1 51 856 853 0 847 863 849 0 +1.12 -.001501 -.0
3 0 1 0 .02 0 0 1 51 849 850 0 840 856 842 0 +1.2 -.001501 -.03 0 1 0 .02 0 0 1
 51 842 847 0 833 849 835 0 +1.28 -.001501 -.03 0 1 0 .02 0 0 1 51 835 844 0 826
 842 828 0 +1.36 -.001501 -.03 0 1 0 .02 0 0 1 51 828 841 0 819 835 821 0 +1.44
 -.001501 -.03 0 1 0 .02 0 0 1 51 821 838 0 812 828 814 0 +1.52 -.001501 -.03 0
 1 0 .02 0 0 1 51 814 835 0 805 821 807 0 +1.6 -.001501 -.03 0 1 0 .02 0 0 1 51
 807 832 0 798 814 800 0 +1.68 -.001501 -.03 0 1 0 .02 0 0 1 51 800 829 0 791 80
7 793 0 +1.76 -.001501 -.03 0 1 0 .02 0 0 1 51 793 826 0 784 800 786 0 +1.84 -.0
01501 -.03 0 1 0 .02 0 0 1 51 786 823 0 754 793 755 0 +1.92 -.001501 -.03 0 1 0
 .02 0 0 1 51 755 116 0 751 786 704 0 +.08 -.001501 -.03 0 1 0 .02 0 0 1 50 704
 3 0 701 755 760 0 +1.013540341785458 .0015 -.203426903470446 0 1 0 0 0 1 82 1 9
34 2119434387 15 931 433 0 692 924 938 17 692 0 931 692 692 0 705 684 0 0 +15 93
8 434 0 689 924 0 17 689 0 938 689 689 0 939 687 0 0 +17 939 0 764 939 939 0 689
 687 0 0 -15 764 260 0 939 538 940 15 940 254 0 941 538 942 17 941 0 940 941 941
 0 683 681 0 0 -15 942 248 0 943 538 944 17 943 0 942 943 943 0 677 675 0 0 -15
 944 242 0 945 538 946 17 945 0 944 945 945 0 671 669 0 0 -15 946 236 0 947 538
 948 17 947 0 946 947 947 0 665 663 0 0 -15 948 230 0 949 538 950 17 949 0 948 9
49 949 0 659 657 0 0 -15 950 224 0 951 538 952 17 951 0 950 951 951 0 653 651 0
 0 -15 952 218 0 953 538 954 17 953 0 952 953 953 0 647 645 0 0 -15 954 212 0 95
5 538 956 17 955 0 954 955 955 0 641 639 0 0 -15 956 206 0 957 538 958 17 957 0
 956 957 957 0 635 633 0 0 -15 958 200 0 959 538 960 17 959 0 958 959 959 0 629
 627 0 0 -15 960 194 0 961 538 962 17 961 0 960 961 961 0 623 621 0 0 -15 962 18
8 0 963 538 964 17 963 0 962 963 963 0 617 615 0 0 -15 964 182 0 965 538 966 17
 965 0 964 965 965 0 611 609 0 0 -15 966 176 0 967 538 968 17 967 0 966 967 967
 0 605 603 0 0 -15 968 170 0 969 538 970 17 969 0 968 969 969 0 599 597 0 0 -15
 970 164 0 971 538 972 17 971 0 970 971 971 0 593 591 0 0 -15 972 158 0 973 538
 974 17 973 0 972 973 973 0 587 585 0 0 -15 974 152 0 975 538 976 17 975 0 974 9
75 975 0 581 579 0 0 -15 976 146 0 977 538 978 17 977 0 976 977 977 0 575 573 0
 0 -15 978 140 0 979 538 980 17 979 0 978 979 979 0 569 567 0 0 -15 980 134 0 98
1 538 757 17 981 0 980 981 981 0 562 560 0 0 -17 562 0 982 562 562 0 981 560 0 0
 +15 982 770 0 562 754 0 17 569 0 983 569 569 0 979 567 0 0 +15 983 754 0 569 78
4 0 17 575 0 984 575 575 0 977 573 0 0 +15 984 738 0 575 791 0 17 581 0 985 581
 581 0 975 579 0 0 +15 985 722 0 581 798 0 17 587 0 986 587 587 0 973 585 0 0 +1
5 986 706 0 587 805 0 17 593 0 987 593 593 0 971 591 0 0 +15 987 690 0 593 812 0
 17 599 0 988 599 599 0 969 597 0 0 +15 988 674 0 599 819 0 17 605 0 989 605 605
 0 967 603 0 0 +15 989 658 0 605 826 0 17 611 0 990 611 611 0 965 609 0 0 +15 99
0 642 0 611 833 0 17 617 0 991 617 617 0 963 615 0 0 +15 991 626 0 617 840 0 17
 623 0 992 623 623 0 961 621 0 0 +15 992 610 0 623 847 0 17 629 0 993 629 629 0
 959 627 0 0 +15 993 594 0 629 854 0 17 635 0 994 635 635 0 957 633 0 0 +15 994
 578 0 635 861 0 17 641 0 995 641 641 0 955 639 0 0 +15 995 562 0 641 868 0 17 6
47 0 996 647 647 0 953 645 0 0 +15 996 546 0 647 875 0 17 653 0 997 653 653 0 95
1 651 0 0 +15 997 530 0 653 882 0 17 659 0 998 659 659 0 949 657 0 0 +15 998 514
 0 659 889 0 17 665 0 999 665 665 0 947 663 0 0 +15 999 498 0 665 896 0 17 671 0
 1000 671 671 0 945 669 0 0 +15 1000 482 0 671 903 0 17 677 0 1001 677 677 0 943
 675 0 0 +15 1001 466 0 677 910 0 17 683 0 1002 683 683 0 941 681 0 0 +15 1002 4
50 0 683 917 0 82 1 928 2139029651 15 925 449 0 686 917 1002 17 686 0 925 686 68
6 0 707 678 0 0 +82 1 921 -2136342381 15 918 465 0 680 910 1001 17 680 0 918 680
 680 0 709 672 0 0 +82 1 914 -2116747117 15 911 481 0 674 903 1000 17 674 0 911
 674 674 0 711 666 0 0 +82 1 907 -2097151853 15 904 497 0 668 896 999 17 668 0 9
04 668 668 0 713 660 0 0 +82 1 900 -2077556589 15 897 513 0 662 889 998 17 662 0
 897 662 662 0 715 654 0 0 +82 1 893 -2057961325 15 890 529 0 656 882 997 17 656
 0 890 656 656 0 717 648 0 0 +82 1 886 -2038366061 15 883 545 0 650 875 996 17 6
50 0 883 650 650 0 719 642 0 0 +82 1 879 -2018770797 15 876 561 0 644 868 995 17
 644 0 876 644 644 0 721 636 0 0 +82 1 872 -1999175533 15 869 577 0 638 861 994
 17 638 0 869 638 638 0 723 630 0 0 +82 1 865 -1979580269 15 862 593 0 632 854 9
93 17 632 0 862 632 632 0 725 624 0 0 +82 1 858 -1959985005 15 855 609 0 626 847
 992 17 626 0 855 626 626 0 727 618 0 0 +82 1 851 -1940389741 15 848 625 0 620 8
40 991 17 620 0 848 620 620 0 729 612 0 0 +82 1 844 -1920794477 15 841 641 0 614
 833 990 17 614 0 841 614 614 0 731 606 0 0 +82 1 837 -1901199213 15 834 657 0 6
08 826 989 17 608 0 834 608 608 0 733 600 0 0 +82 1 830 -1881603949 15 827 673 0
 602 819 988 17 602 0 827 602 602 0 735 594 0 0 +82 1 823 -1862008685 15 820 689
 0 596 812 987 17 596 0 820 596 596 0 737 588 0 0 +82 1 816 -1842413421 15 813 7
05 0 590 805 986 17 590 0 813 590 590 0 739 582 0 0 +82 1 809 -1822818157 15 806
 721 0 584 798 985 17 584 0 806 584 584 0 741 576 0 0 +82 1 802 -1803222893 15 7
99 737 0 578 791 984 17 578 0 799 578 578 0 743 570 0 0 +82 1 795 -1783627629 15
 792 753 0 572 784 983 17 572 0 792 572 572 0 745 563 0 0 +82 1 788 -1764032365
 15 785 769 0 566 754 982 17 566 0 785 566 566 0 747 564 0 0 +82 1 772 199006631
9 83 3 768 .792156862745098 .819607843137255 .933333333333333 17 763 0 759 763 7
63 0 694 559 0 0 -17 694 0 699 694 694 0 763 559 0 0 +15 699 418 0 694 698 0 83
 3 762 .792156862745098 .819607843137255 .933333333333333 17 518 0 528 511 520 5
14 513 519 0 517 -19 504 58 0 7 0 17 13 S0 74 20 502 3 0 0 933 929 10 0 0 0 0 0
 0 0 0 0 0 0 0 0 0 0 0 0 84 5 501 Spine74 20 6 1 0 0 2 0 0 0 0 0 0 0 0 0 0 0 0 0
 0 0 0 0 0 0 1 0 
